<svg width="81" height="81" viewBox="0 0 81 81" fill="none" xmlns="http://www.w3.org/2000/svg">
<rect x="1" y="1" width="79" height="79" rx="39.5" fill="#DCF5FF"/>
<rect x="1" y="1" width="79" height="79" rx="39.5" stroke="#00A9ED" stroke-dasharray="3 2"/>
<path d="M56.5413 55.0952H51.75C51.4864 54.1931 50.9375 53.4008 50.1856 52.8371C49.4336 52.2734 48.5192 51.9688 47.5794 51.9688C46.6396 51.9688 45.7252 52.2734 44.9732 52.8371C44.2212 53.4008 43.6723 54.1931 43.4087 55.0952H23C22.6685 55.0952 22.3505 55.2269 22.1161 55.4613C21.8817 55.6957 21.75 56.0136 21.75 56.3452C21.75 56.6767 21.8817 56.9946 22.1161 57.2291C22.3505 57.4635 22.6685 57.5952 23 57.5952H43.4125C43.6771 58.4957 44.2263 59.2865 44.9777 59.8489C45.7292 60.4113 46.6426 60.7152 47.5813 60.7152C48.5199 60.7152 49.4333 60.4113 50.1848 59.8489C50.9362 59.2865 51.4854 58.4957 51.75 57.5952H56.5375C56.869 57.5952 57.187 57.4635 57.4214 57.2291C57.6558 56.9946 57.7875 56.6767 57.7875 56.3452C57.7875 56.0136 57.6558 55.6957 57.4214 55.4613C57.187 55.2269 56.869 55.0952 56.5375 55.0952H56.5413ZM47.5837 58.2202C47.2129 58.2202 46.8504 58.1102 46.5421 57.9042C46.2337 57.6981 45.9934 57.4053 45.8515 57.0627C45.7096 56.7201 45.6724 56.3432 45.7448 55.9795C45.8171 55.6158 45.9957 55.2816 46.2579 55.0193C46.5201 54.7571 46.8542 54.5785 47.218 54.5062C47.5817 54.4338 47.9587 54.471 48.3013 54.6129C48.6439 54.7548 48.9367 54.9952 49.1428 55.3036C49.3488 55.6119 49.4587 55.9743 49.4587 56.3452C49.4587 56.8424 49.2612 57.3195 48.9096 57.6711C48.5579 58.0227 48.081 58.2202 47.5837 58.2202Z" fill="#00A9ED"/>
<path d="M55.325 23.2202H25.675C24.6343 23.2212 23.6366 23.6351 22.9007 24.3709C22.1648 25.1068 21.751 26.1045 21.75 27.1452V46.7952C21.751 47.8359 22.1648 48.8336 22.9007 49.5695C23.6366 50.3054 24.6343 50.7192 25.675 50.7202H55.325C56.3657 50.7192 57.3634 50.3054 58.0993 49.5695C58.8352 48.8336 59.249 47.8359 59.25 46.7952V27.1452C59.249 26.1045 58.8352 25.1068 58.0993 24.3709C57.3634 23.6351 56.3657 23.2212 55.325 23.2202ZM56.75 46.7952C56.7497 47.173 56.5994 47.5353 56.3323 47.8025C56.0651 48.0696 55.7028 48.2199 55.325 48.2202H25.675C25.2972 48.2199 24.9349 48.0696 24.6677 47.8025C24.4006 47.5353 24.2503 47.173 24.25 46.7952V27.1452C24.2503 26.7674 24.4006 26.4051 24.6677 26.138C24.9349 25.8708 25.2972 25.7205 25.675 25.7202H55.325C55.7028 25.7205 56.0651 25.8708 56.3323 26.138C56.5994 26.4051 56.7497 26.7674 56.75 27.1452V46.7952Z" fill="#00A9ED"/>
<path d="M47.4125 35.9102L37.4125 29.6602C37.2233 29.542 37.0059 29.4765 36.7828 29.4706C36.5598 29.4648 36.3392 29.5187 36.144 29.6269C35.9489 29.7351 35.7862 29.8935 35.673 30.0858C35.5597 30.278 35.5 30.4971 35.5 30.7202V43.2202C35.5 43.4433 35.5597 43.6624 35.673 43.8547C35.7862 44.0469 35.9489 44.2053 36.144 44.3135C36.3392 44.4217 36.5598 44.4756 36.7828 44.4698C37.0059 44.4639 37.2233 44.3985 37.4125 44.2802L47.4125 38.0302C47.5934 37.9181 47.7427 37.7617 47.8462 37.5757C47.9497 37.3898 48.004 37.1805 48.004 36.9677C48.004 36.7549 47.9497 36.5456 47.8462 36.3597C47.7427 36.1737 47.5934 36.0173 47.4125 35.9052V35.9102ZM38 40.9702V32.9702L44.3913 36.9702L38 40.9702Z" fill="#00A9ED"/>
</svg>
