<svg width="81" height="81" viewBox="0 0 81 81" fill="none" xmlns="http://www.w3.org/2000/svg">
<rect x="1" y="1" width="79" height="79" rx="39.5" fill="#DFD4F4"/>
<rect x="1" y="1" width="79" height="79" rx="39.5" stroke="#4500D0" stroke-dasharray="3 2"/>
<path d="M60.1505 51.0739L56.0517 49.0245L53.4432 42.239C53.4124 42.1588 53.3655 42.0858 53.3053 42.0245C53.2451 41.9632 53.1729 41.915 53.0933 41.8829L36.9075 35.4129C36.7943 35.3679 36.6705 35.3569 36.5511 35.3813C36.4318 35.4057 36.3222 35.4645 36.2358 35.5504L34.0771 37.7091C33.9923 37.7956 33.9345 37.9048 33.9107 38.0235C33.8868 38.1422 33.898 38.2652 33.9428 38.3777L40.4127 54.5634C40.4448 54.6431 40.493 54.7153 40.5543 54.7755C40.6156 54.8357 40.6886 54.8826 40.7688 54.9133L47.5543 57.5219L49.6037 61.6207C49.6468 61.7111 49.7111 61.7898 49.791 61.8501C49.8709 61.9105 49.9642 61.9507 50.0629 61.9675C50.0962 61.9706 50.1296 61.9706 50.1629 61.9675C50.3283 61.9668 50.4867 61.9005 50.6034 61.7832L60.313 52.0736C60.3844 52.0046 60.4384 51.9196 60.4705 51.8256C60.5025 51.7316 60.5117 51.6314 60.4973 51.5331C60.4805 51.4344 60.4403 51.3411 60.3799 51.2612C60.3196 51.1813 60.2409 51.117 60.1505 51.0739ZM35.2517 38.2965L35.5985 37.9528L43.6555 46.0098C43.1245 46.7622 42.8952 47.6864 43.0128 48.5998C43.1305 49.5131 43.5866 50.3491 44.291 50.9423C44.9953 51.5355 45.8967 51.8429 46.8167 51.8036C47.7368 51.7642 48.6086 51.3811 49.2598 50.7299C49.9109 50.0788 50.2941 49.207 50.3334 48.2869C50.3727 47.3669 50.0654 46.4655 49.4721 45.7612C48.8789 45.0568 48.0429 44.6007 47.1296 44.483C46.2162 44.3653 45.292 44.5947 44.5396 45.1257L36.4826 37.0687L36.8263 36.7219L52.3747 42.9419L54.8271 49.3213L47.8511 56.2973L41.4717 53.8449L35.2517 38.2965ZM46.6577 45.7005C47.2192 45.7013 47.7631 45.8968 48.1967 46.2537C48.6303 46.6105 48.9267 47.1067 49.0355 47.6576C49.1443 48.2085 49.0587 48.7801 48.7933 49.275C48.528 49.7699 48.0992 50.1574 47.5802 50.3717C47.0611 50.5859 46.4838 50.6136 45.9466 50.4499C45.4095 50.2862 44.9456 49.9414 44.6342 49.4741C44.3228 49.0069 44.183 48.4461 44.2386 47.8873C44.2943 47.3285 44.542 46.8063 44.9395 46.4096C45.3956 45.9549 46.0136 45.6999 46.6577 45.7005ZM50.3347 60.2867L48.7727 57.1627L55.6862 50.2491L58.8103 51.8111L50.3347 60.2867Z" fill="#4500D0"/>
<path d="M32.4588 55.4074C32.3393 55.2944 32.1811 55.2315 32.0167 55.2315C31.8523 55.2315 31.6942 55.2944 31.5747 55.4074L30.7812 56.2009C28.6636 53.3269 27.4954 49.8639 27.4394 46.2945C27.3834 42.7251 28.4424 39.2271 30.4688 36.2881C31.0758 36.6222 31.7749 36.7505 32.461 36.6538C33.1472 36.5572 33.7836 36.2408 34.2748 35.752C34.766 35.2633 35.0856 34.6285 35.1857 33.9429C35.2858 33.2572 35.1609 32.5575 34.8299 31.9488C37.7689 29.9224 41.2669 28.8635 44.8363 28.9195C48.4057 28.9755 51.8687 30.1436 54.7427 32.2612L53.9367 33.0453C53.8205 33.1625 53.7554 33.3208 53.7555 33.4858C53.755 33.568 53.7708 33.6496 53.8019 33.7257C53.833 33.8018 53.8788 33.871 53.9367 33.9294L56.6921 36.663C56.8092 36.7794 56.9676 36.8447 57.1326 36.8447C57.2977 36.8447 57.456 36.7794 57.5731 36.663L60.3129 33.9232C60.371 33.8652 60.4171 33.7962 60.4485 33.7204C60.48 33.6445 60.4962 33.5632 60.4962 33.4811C60.4962 33.399 60.48 33.3177 60.4485 33.2419C60.4171 33.166 60.371 33.0971 60.3129 33.0391L57.5731 30.2993C57.456 30.1829 57.2977 30.1176 57.1326 30.1176C56.9676 30.1176 56.8092 30.1829 56.6921 30.2993L55.6331 31.3521C53.0229 29.388 49.9371 28.154 46.6923 27.7768C43.4476 27.3996 40.1609 27.8929 37.1699 29.2059L40.7719 25.6132C41.1803 25.8083 41.6447 25.8525 42.0826 25.7379C42.5205 25.6232 42.9036 25.3572 43.164 24.9869C43.4244 24.6167 43.5452 24.1662 43.505 23.7153C43.4649 23.2644 43.2663 22.8424 42.9445 22.524C42.6228 22.2056 42.1987 22.0115 41.7474 21.9761C41.2961 21.9407 40.8469 22.0662 40.4794 22.3305C40.1119 22.5948 39.8499 22.9807 39.7399 23.4198C39.6299 23.8589 39.679 24.3227 39.8784 24.7291L33.799 30.8179C33.1817 30.4038 32.4399 30.2169 31.7001 30.2891C30.9603 30.3613 30.2686 30.6881 29.743 31.2137C29.2174 31.7392 28.8906 32.431 28.8184 33.1707C28.7463 33.9105 28.9332 34.6524 29.3472 35.2697L23.2584 41.3491C22.8505 41.1503 22.3853 41.1026 21.9455 41.2144C21.5057 41.3262 21.1198 41.5903 20.8564 41.9598C20.5929 42.3293 20.469 42.7802 20.5066 43.2324C20.5442 43.6847 20.7409 44.1089 21.0618 44.4298C21.3827 44.7507 21.8069 44.9474 22.2592 44.985C22.7114 45.0226 23.1623 44.8987 23.5318 44.6352C23.9013 44.3718 24.1654 43.9859 24.2772 43.5461C24.389 43.1063 24.3413 42.6411 24.1425 42.2332L27.7446 38.6405C26.4302 41.6308 25.9355 44.917 26.311 48.1617C26.6865 51.4064 27.9188 54.4927 29.8814 57.1037L28.8255 58.1628C28.7091 58.2798 28.6438 58.4382 28.6438 58.6033C28.6438 58.7683 28.7091 58.9267 28.8255 59.0438L31.5653 61.7836C31.6819 61.9009 31.8403 61.9672 32.0058 61.9679C32.0882 61.9679 32.1699 61.9517 32.246 61.9201C32.3222 61.8884 32.3913 61.842 32.4494 61.7836L35.1923 59.0438C35.3087 58.9267 35.374 58.7683 35.374 58.6033C35.374 58.4382 35.3087 58.2798 35.1923 58.1628L32.4588 55.4074ZM57.1389 31.6176L58.9946 33.4733L57.1389 35.329L55.2832 33.4733L57.1389 31.6176ZM41.128 23.4264C41.2209 23.3327 41.3395 23.2688 41.4687 23.2427C41.5979 23.2166 41.732 23.2295 41.8539 23.2797C41.9758 23.3299 42.08 23.4152 42.1534 23.5247C42.2267 23.6343 42.2659 23.7631 42.2659 23.895C42.2659 24.0268 42.2267 24.1557 42.1534 24.2652C42.08 24.3748 41.9758 24.46 41.8539 24.5102C41.732 24.5605 41.5979 24.5733 41.4687 24.5472C41.3395 24.5211 41.2209 24.4572 41.128 24.3636C41.0665 24.3021 41.0176 24.229 40.9843 24.1486C40.9509 24.0682 40.9338 23.982 40.9338 23.895C40.9338 23.8079 40.9509 23.7217 40.9843 23.6413C41.0176 23.5609 41.0665 23.4879 41.128 23.4264ZM30.6312 32.1019C30.8126 31.9196 31.0283 31.7749 31.2658 31.6762C31.5033 31.5775 31.758 31.5267 32.0152 31.5267C32.2724 31.5267 32.527 31.5775 32.7645 31.6762C33.002 31.7749 33.2177 31.9196 33.3991 32.1019C33.6734 32.3757 33.8602 32.7247 33.9361 33.1047C34.0119 33.4848 33.9733 33.8788 33.8251 34.2369C33.677 34.595 33.4259 34.9011 33.1037 35.1165C32.7815 35.3319 32.4027 35.4468 32.0152 35.4468C31.6276 35.4468 31.2488 35.3319 30.9266 35.1165C30.6044 34.9011 30.3533 34.595 30.2052 34.2369C30.057 33.8788 30.0184 33.4848 30.0942 33.1047C30.1701 32.7247 30.3569 32.3757 30.6312 32.1019ZM22.896 43.5359C22.7685 43.6423 22.6057 43.6971 22.4398 43.6896C22.2739 43.6821 22.1168 43.6128 21.9993 43.4954C21.8819 43.378 21.8126 43.2208 21.8051 43.0549C21.7976 42.889 21.8524 42.7263 21.9588 42.5987C22.0838 42.4758 22.2521 42.407 22.4274 42.407C22.6027 42.407 22.771 42.4758 22.896 42.5987C22.9576 42.6602 23.0065 42.7333 23.0398 42.8137C23.0731 42.8941 23.0903 42.9803 23.0903 43.0673C23.0903 43.1544 23.0731 43.2405 23.0398 43.321C23.0065 43.4014 22.9576 43.4744 22.896 43.5359ZM32.0152 60.4465L30.1595 58.5908L32.0152 56.7351L33.8709 58.5908L32.0152 60.4465Z" fill="#4500D0"/>
</svg>
