<svg width="81" height="81" viewBox="0 0 81 81" fill="none" xmlns="http://www.w3.org/2000/svg">
<rect x="1" y="1" width="79" height="79" rx="39.5" fill="#FFDAF0"/>
<rect x="1" y="1" width="79" height="79" rx="39.5" stroke="#BB0064" stroke-dasharray="3 2"/>
<path d="M31.2003 47.1447C31.5738 46.9293 31.7017 46.4511 31.4863 46.0775C31.2705 45.7043 30.7926 45.5761 30.4191 45.7916C30.0455 46.0073 29.9173 46.4855 30.1331 46.8588C30.3486 47.2323 30.8268 47.3605 31.2003 47.1447Z" fill="#BB0064"/>
<path d="M27.9988 52.537L31.9331 59.3519C32.7821 60.824 34.6919 61.3691 36.2022 60.496C37.6966 59.6323 38.2103 57.7228 37.3457 56.2272L35.0019 52.1671L37.0317 50.9952C37.4052 50.7792 37.5334 50.3016 37.3176 49.928L36.3017 48.1684C36.4228 48.1449 37.2194 47.9886 51.2657 45.2332C53.0021 45.1389 54.0425 43.2398 53.1654 41.7215L50.569 37.2245L52.2282 34.7113C52.3912 34.4642 52.4009 34.1465 52.2529 33.8901L50.6904 31.1838C50.5424 30.9275 50.2613 30.7773 49.9668 30.7947L46.9612 30.9751L44.0788 25.9824C43.6613 25.2592 42.9133 24.8212 42.0784 24.8109C42.0683 24.8105 42.0585 24.8105 42.0485 24.8105C41.2416 24.8105 40.5091 25.2122 40.0752 25.8912L29.8695 38.8923L23.2347 42.7228C20.6251 44.2289 19.7212 47.5766 21.233 50.1932C22.6142 52.5858 25.5262 53.527 27.9988 52.537ZM35.9928 57.0087C36.4244 57.7552 36.1689 58.7104 35.4203 59.1428C34.6693 59.5771 33.7129 59.3103 33.2862 58.5709L29.38 51.8042L32.0863 50.2417C36.6072 58.0732 35.9202 56.8833 35.9928 57.0087ZM34.2207 50.8136L33.4394 49.4605L34.7926 48.6792L35.5738 50.0324L34.2207 50.8136ZM49.5787 32.3832L50.6584 34.2533L49.6955 35.7114L47.8346 32.4878L49.5787 32.3832ZM41.3819 26.7478C41.5916 26.4048 41.9242 26.3694 42.0591 26.373C42.1925 26.3746 42.5248 26.4161 42.7253 26.7634L51.8122 42.5028C52.1083 43.0152 51.7485 43.6594 51.1549 43.6741C51.0484 43.6765 50.9993 43.6957 50.7264 43.7467L41.1143 27.0978C41.316 26.8384 41.342 26.8134 41.3819 26.7478ZM40.0746 28.4223L49.1056 44.0647L35.4759 46.738L31.3316 39.56L40.0746 28.4223ZM22.5862 49.412C22.2431 48.8184 22.0619 48.1446 22.0619 47.4628C22.0619 46.0694 22.8108 44.7718 24.0159 44.076L30.1051 40.5603L34.0113 47.3261L27.9222 50.842C26.0566 51.9187 23.6631 51.2772 22.5862 49.412Z" fill="#BB0064"/>
<path d="M28.7799 47.6402C28.5642 47.2667 28.0863 47.1385 27.7127 47.3543L26.3596 48.1355C25.9867 48.351 25.5079 48.2225 25.2924 47.8496C25.0766 47.476 24.5987 47.3479 24.2252 47.5636C23.8517 47.7794 23.7235 48.2573 23.9392 48.6308C24.5823 49.7447 26.0166 50.1375 27.1408 49.4887L28.494 48.7074C28.8675 48.4917 28.9957 48.0141 28.7799 47.6402Z" fill="#BB0064"/>
<path d="M59.3388 26.4817L54.9855 28.9041C54.6086 29.1141 54.4728 29.5899 54.6828 29.9668C54.8921 30.3433 55.3676 30.4798 55.7454 30.2695L60.0984 27.847C60.4756 27.637 60.6111 27.1613 60.4011 26.7844C60.1915 26.4072 59.7157 26.2717 59.3388 26.4817Z" fill="#BB0064"/>
<path d="M58.8822 34.5728L55.8637 33.7641C55.4469 33.6524 55.0184 33.8996 54.9067 34.3165C54.795 34.7334 55.0425 35.1615 55.4594 35.2732L58.4782 36.0819C58.8975 36.1945 59.3238 35.9434 59.4349 35.5296C59.5466 35.1127 59.2991 34.6842 58.8822 34.5728Z" fill="#BB0064"/>
<path d="M51.2969 23.6432L50.4873 26.662C50.3756 27.0788 50.6228 27.507 51.0396 27.619C51.4562 27.7304 51.8847 27.4838 51.9967 27.0666L52.806 24.0478C52.9177 23.631 52.6705 23.2025 52.2536 23.0908C51.8371 22.9791 51.4086 23.2263 51.2969 23.6432Z" fill="#BB0064"/>
</svg>
