<svg width="81" height="81" viewBox="0 0 81 81" fill="none" xmlns="http://www.w3.org/2000/svg">
<rect x="1" y="1" width="79" height="79" rx="39.5" fill="#FFF3D9"/>
<rect x="1" y="1" width="79" height="79" rx="39.5" stroke="#F2A700" stroke-dasharray="3 2"/>
<path d="M55.7 28.0612C56.494 28.0612 57.1364 27.4188 57.1364 26.6248C57.1364 25.8309 56.494 25.1885 55.7 25.1885C54.9061 25.1885 54.2637 25.8309 54.2637 26.6248C54.2637 27.4188 54.9122 28.0612 55.7 28.0612ZM55.7 26.2127C55.9303 26.2127 56.1182 26.4006 56.1182 26.6309C56.1182 26.8612 55.9303 27.0491 55.7 27.0491C55.4637 27.0491 55.2819 26.8673 55.2819 26.6309C55.2819 26.3945 55.4697 26.2127 55.7 26.2127Z" fill="#F2A700"/>
<path d="M57.2942 22.8672H27.7669C26.6457 22.8672 25.7305 23.7823 25.7305 24.9036V28.0126H23.7063C22.5851 28.0126 21.6699 28.9278 21.6699 30.049V55.5823C21.6699 56.7035 22.5851 57.6187 23.7063 57.6187H37.2396V60.5641C37.2396 60.8429 37.4699 61.0732 37.7487 61.0732H47.3123C47.5911 61.0732 47.8214 60.8429 47.8214 60.5641V57.6187H53.2336C54.3548 57.6187 55.2699 56.7035 55.2699 55.5823V52.4732H57.2942C58.4154 52.4732 59.3305 51.5581 59.3305 50.4369V24.9036C59.3305 23.7823 58.4154 22.8672 57.2942 22.8672ZM26.7487 24.9036C26.7487 24.3399 27.2093 23.8854 27.7669 23.8854H57.2942C57.8578 23.8854 58.3123 24.346 58.3123 24.9036V29.3702H38.9911L36.7184 27.0126C36.5426 26.8308 36.3002 26.7278 36.0517 26.7278H31.0457C30.5366 26.7278 30.1184 27.146 30.1184 27.6551V29.3702H26.7487V24.9036ZM23.7063 56.6066C23.1426 56.6066 22.6881 56.146 22.6881 55.5884V30.049C22.6881 29.4854 23.1487 29.0308 23.7063 29.0308H25.7305V50.4429C25.7305 51.5641 26.6457 52.4793 27.7669 52.4793H38.8214C39.0214 52.8672 39.1123 53.3035 39.076 53.752H38.2881C37.7063 53.752 37.2396 54.2247 37.2396 54.8005V56.6066H23.7063ZM42.0275 45.946C42.1305 45.7641 42.3184 45.649 42.5305 45.649C42.8457 45.649 43.1002 45.9035 43.1002 46.2187C43.1002 46.4247 42.9911 46.6126 42.8154 46.7157C42.6214 46.8308 42.3911 46.8187 42.1548 46.6854C42.1245 46.6672 42.0942 46.6429 42.082 46.6126C41.8881 46.3035 41.9669 46.0611 42.0275 45.946ZM42.0214 44.7278C41.6517 44.8551 41.3366 45.1035 41.1427 45.4551C40.8517 45.9763 40.8881 46.6126 41.2275 47.1581C41.3366 47.3278 41.482 47.4672 41.6578 47.5702C41.9366 47.7278 42.2396 47.8126 42.5366 47.8126C42.8154 47.8126 43.0881 47.7399 43.3305 47.6005C43.8154 47.3157 44.1184 46.7884 44.1184 46.2247C44.1184 45.5278 43.6639 44.9399 43.0396 44.7278V42.1096L47.5426 50.2369C47.5366 50.2429 47.5305 50.2551 47.5123 50.2611C45.9184 50.6732 44.876 52.1641 44.9608 53.752H40.1063C40.1972 52.1581 39.1487 50.6672 37.5245 50.2126L42.0214 42.1096V44.7278ZM46.8033 60.0551H38.2578L38.2881 54.7641H46.773C46.7911 54.7641 46.8033 54.7763 46.8033 54.7944V60.0551ZM54.2517 55.5823C54.2517 56.146 53.7911 56.6005 53.2336 56.6005H47.8214V54.7944C47.8214 54.2126 47.3487 53.746 46.773 53.746H45.9851C45.9487 53.2975 46.0457 52.8611 46.2396 52.4732H54.2517V55.5823ZM57.2942 51.4611H47.2275C47.3911 51.3702 47.5669 51.2914 47.7608 51.2429C48.082 51.1581 48.3426 50.9338 48.476 50.6308C48.6033 50.3338 48.5851 50.0005 48.4275 49.7157L43.2154 40.3278C43.082 40.0793 42.8214 39.9217 42.5366 39.9217C42.2457 39.9278 41.9851 40.0732 41.8457 40.3217L36.6275 49.7157C36.4699 50.0005 36.4578 50.3399 36.5851 50.6369C36.7123 50.9399 36.973 51.1581 37.2942 51.2429C37.4881 51.2914 37.6578 51.3702 37.8275 51.4611H27.7669C27.2033 51.4611 26.7487 51.0005 26.7487 50.4429V30.3884H30.2033C30.7124 30.3884 31.1305 29.9702 31.1305 29.4611V27.746H36.0093L38.282 30.1036C38.4578 30.2854 38.7002 30.3884 38.9487 30.3884H58.3123V50.4369C58.3123 51.0005 57.8578 51.4611 57.2942 51.4611Z" fill="#F2A700"/>
<path d="M52.2337 28.0612C53.0277 28.0612 53.6701 27.4188 53.6701 26.6248C53.6701 25.8309 53.0277 25.1885 52.2337 25.1885C51.4398 25.1885 50.7974 25.8309 50.7974 26.6248C50.7974 27.4188 51.4398 28.0612 52.2337 28.0612ZM52.2337 26.2127C52.464 26.2127 52.6519 26.4006 52.6519 26.6309C52.6519 26.8612 52.464 27.0491 52.2337 27.0491C51.9974 27.0491 51.8155 26.8673 51.8155 26.6309C51.8155 26.3945 52.0034 26.2127 52.2337 26.2127Z" fill="#F2A700"/>
<path d="M48.7611 28.0612C49.555 28.0612 50.1974 27.4188 50.1974 26.6248C50.1974 25.8309 49.555 25.1885 48.7611 25.1885C47.9671 25.1885 47.3247 25.8309 47.3247 26.6248C47.3247 27.4188 47.9671 28.0612 48.7611 28.0612ZM48.7611 26.2127C48.9914 26.2127 49.1793 26.4006 49.1793 26.6309C49.1793 26.8612 48.9914 27.0491 48.7611 27.0491C48.5247 27.0491 48.3429 26.8673 48.3429 26.6309C48.3429 26.3945 48.5308 26.2127 48.7611 26.2127Z" fill="#F2A700"/>
<path d="M52.3424 34.8245C52.0455 35.1215 51.8576 35.4972 51.7849 35.8972H44.6636V35.0972C44.6636 34.5518 44.2212 34.1094 43.6758 34.1094H41.3788C40.8333 34.1094 40.3909 34.5518 40.3909 35.0972V35.8972H33.2758C33.2091 35.5033 33.0212 35.1275 32.7182 34.8185C31.9485 34.0609 30.6333 34.073 29.8818 34.8245C29.5 35.2063 29.2939 35.7094 29.2939 36.2427C29.2939 36.7821 29.5061 37.2912 29.8818 37.6609C30.2636 38.0548 30.7727 38.2548 31.3 38.2548C31.6333 38.2548 31.9727 38.176 32.2939 38.0124C32.6394 37.8366 32.9242 37.5457 33.0939 37.1881C33.1364 37.0972 33.1727 37.0063 33.203 36.9154H38.1424C35.4576 38.2245 33.4333 40.6851 32.7303 43.6548H31.9424C31.397 43.6548 30.9545 44.0972 30.9545 44.6427V46.9397C30.9545 47.4851 31.397 47.9275 31.9424 47.9275H34.2394C34.7849 47.9275 35.2273 47.4851 35.2273 46.9397V44.6427C35.2273 44.0972 34.7849 43.6548 34.2394 43.6548H33.7788C34.6273 40.4548 37.1909 37.9457 40.4091 37.17V37.3881C40.4091 37.9336 40.8515 38.376 41.397 38.376H43.6939C44.2394 38.376 44.6818 37.9336 44.6818 37.3881V37.17C47.8939 37.9457 50.4576 40.4548 51.3121 43.6548H50.8939C50.3485 43.6548 49.9061 44.0972 49.9061 44.6427V46.9397C49.9061 47.4851 50.3485 47.9275 50.8939 47.9275H53.1909C53.7364 47.9275 54.1788 47.4851 54.1788 46.9397V44.6427C54.1788 44.0972 53.7364 43.6548 53.1909 43.6548H52.3606C51.6515 40.6851 49.6273 38.2185 46.9485 36.9154H51.9C51.997 37.1942 52.1546 37.4488 52.3667 37.6609C52.7485 38.0548 53.2576 38.2548 53.7849 38.2548C54.1182 38.2548 54.4576 38.176 54.7788 38.0124C55.1242 37.8366 55.4091 37.5457 55.5788 37.1881C55.9727 36.3578 55.8333 35.4548 55.2091 34.8185C54.4152 34.0669 53.1 34.073 52.3424 34.8245ZM32.1667 36.7578C32.0939 36.9033 31.9727 37.0306 31.8273 37.1033C31.3 37.37 30.8455 37.2003 30.597 36.9397C30.4091 36.7578 30.3061 36.5094 30.3061 36.2427C30.3061 35.9821 30.4091 35.7336 30.597 35.5397C30.7848 35.3518 31.0333 35.2488 31.3 35.2488C31.5606 35.2488 31.8152 35.3518 31.997 35.5336C32.3121 35.8609 32.3727 36.3154 32.1667 36.7578ZM34.2273 46.9094L31.9606 46.9397L31.9303 44.673H34.197L34.2273 46.9094ZM53.1727 46.9094L50.9061 46.9397L50.8758 44.673H53.1424L53.1727 46.9094ZM41.4152 37.3942L41.403 36.6306C41.4152 36.576 41.4152 36.5215 41.4091 36.4609V36.4548C41.4091 36.4366 41.4212 36.4245 41.4212 36.4063C41.4212 36.376 41.4091 36.3518 41.403 36.3275L41.3849 35.1336H43.6515L43.6697 36.3275C43.6636 36.3578 43.6515 36.3821 43.6515 36.4124C43.6515 36.4306 43.6576 36.4427 43.6636 36.4609V36.4669C43.6515 36.5457 43.6576 36.6185 43.6758 36.6851L43.6879 37.37L41.4152 37.3942ZM54.6333 36.7578C54.5606 36.9033 54.4394 37.0306 54.2939 37.1033C53.7667 37.37 53.3121 37.2003 53.0636 36.9397C52.8758 36.7578 52.7727 36.5094 52.7727 36.2427C52.7727 35.9821 52.8758 35.7336 53.0636 35.5397C53.2515 35.3518 53.5 35.2488 53.7667 35.2488C54.0273 35.2488 54.2818 35.3518 54.4636 35.5336C54.7788 35.8609 54.8394 36.3154 54.6333 36.7578Z" fill="#F2A700"/>
</svg>
