<svg width="81" height="81" viewBox="0 0 81 81" fill="none" xmlns="http://www.w3.org/2000/svg">
<rect x="1" y="1" width="79" height="79" rx="39.5" fill="#D1F5E4"/>
<rect x="1" y="1" width="79" height="79" rx="39.5" stroke="#00BC65" stroke-dasharray="3 2"/>
<path d="M35.388 51.0695C35.2168 51.0695 35.0442 51.0106 34.9035 50.8907L30.06 46.7665C29.8929 46.6241 29.7969 46.4161 29.7969 46.1964C29.7969 45.9771 29.8934 45.7691 30.06 45.6267L34.9035 41.5024C35.218 41.2343 35.6904 41.2723 35.9586 41.5868C36.2263 41.9017 36.1887 42.3741 35.8738 42.6419L31.6998 46.1964L35.8738 49.7509C36.1887 50.019 36.2263 50.4914 35.9586 50.8059C35.8103 50.9801 35.5998 51.0695 35.388 51.0695Z" fill="#00BC65"/>
<path d="M44.9491 51.0695C44.7373 51.0695 44.5268 50.9801 44.3789 50.8059C44.1108 50.4914 44.1488 50.019 44.4633 49.7509L48.6372 46.1964L44.4633 42.6419C44.1488 42.3741 44.1108 41.9017 44.3789 41.5868C44.6467 41.2723 45.1195 41.2343 45.4336 41.5024L50.277 45.6267C50.4441 45.7691 50.5402 45.9771 50.5402 46.1964C50.5402 46.4161 50.4441 46.6241 50.277 46.7665L45.4336 50.8907C45.2928 51.0106 45.1203 51.0695 44.9491 51.0695Z" fill="#00BC65"/>
<path d="M38.4538 54.1628C38.4024 54.1628 38.3506 54.1574 38.2984 54.1465C37.8941 54.0613 37.6351 53.6641 37.7203 53.2598L40.7389 38.9278C40.8241 38.5235 41.2209 38.2645 41.6257 38.3497C42.03 38.4349 42.289 38.8317 42.2038 39.2364L39.1851 53.5685C39.1108 53.921 38.8 54.1628 38.4538 54.1628Z" fill="#00BC65"/>
<path d="M57.8116 61.9702H22.5256C19.7547 61.9702 17.5 59.716 17.5 56.9446V26.9958C17.5 24.2249 19.7547 21.9702 22.5256 21.9702H57.8116C60.5825 21.9702 62.8372 24.2249 62.8372 26.9958V56.9446C62.8372 59.716 60.5825 61.9702 57.8116 61.9702ZM22.5256 23.4672C20.58 23.4672 18.997 25.0502 18.997 26.9958V56.9446C18.997 58.8902 20.58 60.4732 22.5256 60.4732H57.8116C59.7572 60.4732 61.3402 58.8902 61.3402 56.9446V26.9958C61.3402 25.0502 59.7572 23.4672 57.8116 23.4672H22.5256Z" fill="#00BC65"/>
<path d="M62.0887 33.9555H18.2485C17.835 33.9555 17.5 33.6205 17.5 33.207C17.5 32.7939 17.835 32.4585 18.2485 32.4585H62.0887C62.5022 32.4585 62.8372 32.7939 62.8372 33.207C62.8372 33.6205 62.5022 33.9555 62.0887 33.9555Z" fill="#00BC65"/>
<path d="M30.2886 30.3736C28.9829 30.3736 27.9199 29.3106 27.9199 28.0049C27.9199 26.6988 28.9829 25.6362 30.2886 25.6362C31.5947 25.6362 32.6573 26.6988 32.6573 28.0049C32.6573 29.3106 31.5947 30.3736 30.2886 30.3736ZM30.2886 27.1332C29.8083 27.1332 29.4169 27.5242 29.4169 28.0049C29.4169 28.4857 29.8083 28.8766 30.2886 28.8766C30.7694 28.8766 31.1603 28.4857 31.1603 28.0049C31.1603 27.5242 30.7694 27.1332 30.2886 27.1332Z" fill="#00BC65"/>
<path d="M23.0113 30.3502C21.7052 30.3502 20.6426 29.2876 20.6426 27.9815C20.6426 26.6754 21.7052 25.6128 23.0113 25.6128C24.3174 25.6128 25.38 26.6754 25.38 27.9815C25.38 29.2876 24.3174 30.3502 23.0113 30.3502ZM23.0113 27.1098C22.5309 27.1098 22.1396 27.5011 22.1396 27.9815C22.1396 28.4622 22.5309 28.8532 23.0113 28.8532C23.492 28.8532 23.883 28.4622 23.883 27.9815C23.883 27.5011 23.492 27.1098 23.0113 27.1098Z" fill="#00BC65"/>
<path d="M37.5665 30.3966C36.2608 30.3966 35.1982 29.334 35.1982 28.0279C35.1982 26.7223 36.2608 25.6597 37.5665 25.6597C38.8726 25.6597 39.9352 26.7223 39.9352 28.0279C39.9352 29.334 38.8726 30.3966 37.5665 30.3966ZM37.5665 27.1562C37.0862 27.1562 36.6952 27.5472 36.6952 28.0279C36.6952 28.5087 37.0862 28.8996 37.5665 28.8996C38.0473 28.8996 38.4382 28.5087 38.4382 28.0279C38.4382 27.5472 38.0473 27.1562 37.5665 27.1562Z" fill="#00BC65"/>
</svg>
